<svg xmlns="http://www.w3.org/2000/svg" viewBox="0 0 382.65 46.75"><defs><style>.cls-1{fill:#2d1512;}</style></defs><g id="Layer_2" data-name="Layer 2"><g id="Layer_1-2" data-name="Layer 1"><path class="cls-1" d="M51.12,19.6c0-3.37-2.48-4.84-8.32-4.84-6.38.12-8.92,1.77-8.92,7.85,0,4.78,2.6,7.56,9.15,7.56,6,0,8.15-1.83,8.15-4.9,0-.36-.06-.77-.06-1.19,4.25.12,11.1.12,16.41.12s10.74,0,16-.12c.12,1.36.18,2.6.18,3.84,0,14.88-10.87,18.83-42.15,18.83C9.62,46.75,0,39.9,0,22.08,0,5.43,12.45,0,42.15,0,72.49,0,83.59,3,83.59,15.53a35.18,35.18,0,0,1-.42,4.72c-5.25-.12-10.56-.12-15.76-.12s-12.1,0-16.29.12Z"/><path class="cls-1" d="M137.13,45.51a60.82,60.82,0,0,0-.94-7.67H120.25a69,69,0,0,0-1.12,7.67H85.19C90.44,34.24,99.53,7.56,101.12,1.24h56.67c1.71,6.37,11.1,33.12,16.59,44.27Zm-3.36-18.42c-.89-3.36-1.89-6.78-3-10-1.07-2.77-1.89-5.55-2.54-7.85-.65,2.3-1.48,5-2.48,7.85-1.06,3.19-2.07,6.67-2.95,10h11Z"/><path class="cls-1" d="M240.26,24a49,49,0,0,1,6.14.59c7.85,1.29,10.45,4.13,10.45,9.56,0,8.62-6,11.33-21.37,11.33H177c.3-6.37.42-12.75.42-22.13S177.28,7.5,177,1.24h57.26c13.29,0,21.84,2.6,21.84,11.81,0,5.66-2.06,8.32-9.5,9.85a49.38,49.38,0,0,1-6.32.77Zm-20.13-12.7c-3.42,0-7,0-11,.12-.05,2.07-.05,4.55-.05,7.26,4,.18,7.61.12,10.86.12s4.72-1.12,4.72-3.84S223.26,11.33,220.13,11.33Zm4.61,19.19c0-2.6-1.48-3.48-4.78-3.48s-6.91.05-10.86.23c0,2.54.05,4.84.11,6.91,4.2.12,7.74.12,10.92.12S224.74,33.35,224.74,30.52Z"/><path class="cls-1" d="M261.93,45.51c.3-6.55.24-12.75.24-22.13s.06-15.59-.24-22.14h33.18c-.18,6.49-.18,12.69-.18,22s.12,15.64.18,22.25Z"/><path class="cls-1" d="M382.65,1.24c-.35,5.14-.35,12.69-.35,22.08,0,9.86,0,16.53.17,22.19H346.82C344.52,42,337.61,36,333.3,31.7a82.7,82.7,0,0,1-4.37-7.26l-.29.06c.35,3.36.41,6.49.59,10.15.12,5.43.17,9.09.29,10.86h-27c0-6,.23-12.69.23-22.13s.06-15.94-.23-22.14h36.77c1.07,2.24,9.74,10.86,13.4,14.7,1.18,1.83,2.42,3.6,3.43,5.55l.29-.12c-.18-2.83-.29-5.43-.35-7.38-.12-5.25-.3-10.27-.53-12.75Z"/></g></g></svg>